PathFileType	4	(X/Y/Z)	D:\mayra\Descargas\0003~aa~Standing.trc
DataRate	CameraRate	NumFrames	NumMarkers	Units	OrigDataRate	OrigDataStartFrame	OrigNumFrames
250.00	250.00	10	22	mm	250.00	1073	2178
Frame#	Time	r.should			l.should			c7			r.asis			l.asis			sacrum			r.bar1			l.bar1			r.knee1			l.knee1			r.bar2			r.mall			l.bar2			l.mall			r.met			r.heel			l.heel			l.met			r.mallm			l.mallm			r.kneem			l.kneem			
		X1	Y1	Z1	X2	Y2	Z2	X3	Y3	Z3	X4	Y4	Z4	X5	Y5	Z5	X6	Y6	Z6	X7	Y7	Z7	X8	Y8	Z8	X9	Y9	Z9	X10	Y10	Z10	X11	Y11	Z11	X12	Y12	Z12	X13	Y13	Z13	X14	Y14	Z14	X15	Y15	Z15	X16	Y16	Z16	X17	Y17	Z17	X18	Y18	Z18	X19	Y19	Z19	X20	Y20	Z20	X21	Y21	Z21	X22	Y22	Z22	

1072	4.288000	1003.037095	1331.848621	360.783756	1032.714725	1321.151018	71.098037	921.770811	1356.153250	225.250334	1136.838198	870.981574	361.218810	1083.254814	872.844696	59.826154	884.130001	938.189209	236.196995	1034.792781	835.164547	435.139149	1028.171420	794.110656	26.326295	1008.691192	467.800617	388.346404	1001.586199	447.177410	96.889772	1005.264282	405.339926	383.554161	970.924139	76.234519	363.985449	980.539024	403.282106	94.235428	974.788666	70.434429	111.204356	1116.007924	42.673789	345.034897	909.086466	33.438604	319.039464	913.724363	31.490855	158.210680	1117.378712	40.868223	129.402608	980.697334	75.256050	280.350417	983.918846	74.889973	188.919112	1034.467459	450.378001	249.520615	1010.545850	447.935820	230.338365	
1073	4.292000	1003.014445	1331.857204	360.813111	1032.687902	1321.164846	71.126953	921.731412	1356.162071	225.269735	1136.794209	870.972037	361.241907	1083.259106	872.871816	59.830431	884.093761	938.187003	236.216426	1034.793854	835.160434	435.154021	1028.132200	794.111371	26.341591	1008.682966	467.787534	388.354480	1001.571774	447.182536	96.905395	1005.265594	405.338317	383.575261	970.919311	76.229081	364.005178	980.525970	403.287649	94.244838	974.780560	70.439234	111.212127	1116.008759	42.670321	345.042497	909.083366	33.434622	319.051743	913.719594	31.438012	158.443362	1117.373228	40.871974	129.404902	980.697155	75.258657	280.362785	984.076798	74.902818	188.805804	1034.433126	450.369298	249.546066	1010.540247	447.933644	230.350554	
1074	4.296000	1002.974987	1331.862807	360.840082	1032.679677	1321.184158	71.159132	921.684504	1356.161118	225.292802	1136.754870	870.964170	361.251354	1083.249927	872.883558	59.835453	884.066761	938.181818	236.236289	1034.763336	835.154235	435.184032	1028.099537	794.115305	26.359186	1008.658171	467.781842	388.365924	1001.557589	447.175741	96.914664	1005.245566	405.327439	383.580327	970.923603	76.233208	364.006907	980.511844	403.287381	94.246566	974.791646	70.441142	111.216702	1116.010785	42.672977	345.053643	909.076989	33.437517	319.065571	913.735747	31.415634	158.511251	1117.373228	40.862642	129.409730	980.698884	75.265229	280.357808	984.106243	74.901804	188.779354	1034.404755	450.353563	249.567419	1010.530949	447.935343	230.364546	
1075	4.300000	1002.928495	1331.869006	360.860139	1032.645822	1321.200609	71.176611	921.624064	1356.158376	225.310922	1136.726737	870.962024	361.260504	1083.242059	872.902632	59.831727	884.053230	938.168645	236.258984	1034.747243	835.154772	435.201377	1028.064251	794.124842	26.374722	1008.642197	467.789531	388.376623	1001.553297	447.175652	96.913651	1005.221605	405.323416	383.579195	970.924020	76.239549	364.004970	980.508447	403.287262	94.252326	974.780440	70.432790	111.220300	1116.004944	42.680841	345.051408	909.077883	33.437267	319.070220	913.733006	31.406526	158.526063	1117.369294	40.865317	129.411846	980.695188	75.259991	280.356884	984.114170	74.897334	188.776791	1034.439087	450.374007	249.546528	1010.511994	447.936833	230.370715	
1076	4.304000	1002.895355	1331.880331	360.877246	1032.603979	1321.218252	71.198031	921.576738	1356.153131	225.319296	1136.690259	870.962501	361.268789	1083.233595	872.923255	59.831761	884.014606	938.167810	236.273140	1034.709573	835.149050	435.213655	1028.044462	794.129610	26.379697	1008.625627	467.790633	388.385147	1001.532316	447.180837	96.914336	1005.197287	405.319303	383.577347	970.918477	76.239988	363.984644	980.484128	403.286010	94.255134	974.772811	70.428967	111.220449	1115.999699	42.688280	345.045865	909.071147	33.431944	319.074750	913.709641	31.405065	158.528969	1117.360353	40.866248	129.410952	980.702639	75.263292	280.361623	984.119058	74.903667	188.789651	1034.456015	450.396538	249.536455	1010.486841	447.933882	230.374962	
1077	4.308000	1002.858520	1331.892014	360.891074	1032.574534	1321.238041	71.218729	921.534657	1356.158733	225.342900	1136.647463	870.966852	361.275494	1083.195925	872.927547	59.858132	883.981645	938.165963	236.286983	1034.656763	835.140765	435.221672	1028.009415	794.127226	26.381969	1008.609891	467.789590	388.393879	1001.512051	447.179019	96.915267	1005.170941	405.322820	383.579165	970.904529	76.233402	363.981426	980.452061	403.278619	94.254389	974.784553	70.423104	111.215435	1115.989923	42.683586	345.032573	909.047782	33.427097	319.068193	913.691759	31.417381	158.527672	1117.350698	40.867276	129.409090	980.700135	75.257838	280.360222	984.123349	74.911095	188.793331	1034.396768	450.378507	249.570221	1010.457277	447.931528	230.382740	
1078	4.312000	1002.825260	1331.903338	360.906482	1032.570004	1321.263433	71.238995	921.500206	1356.160045	225.371748	1136.611581	870.976925	361.287653	1083.171606	872.938812	59.870400	883.922815	938.177228	236.294806	1034.652591	835.148335	435.222536	1027.980804	794.127524	26.391016	1008.574963	467.789263	388.393700	1001.490951	447.179735	96.914053	1005.159259	405.323744	383.572161	970.886111	76.233596	363.990963	980.442107	403.286397	94.254613	974.776447	70.428230	111.208707	1115.978956	42.681746	345.032275	909.044385	33.427618	319.058418	913.674653	31.437192	158.517629	1117.340446	40.874608	129.407406	980.688691	75.268954	280.355364	984.116375	74.919388	188.776970	1034.376740	450.362980	249.584079	1010.437489	447.944552	230.383217	
1079	4.316000	1002.804279	1331.911683	360.928416	1032.559156	1321.283817	71.254373	921.473265	1356.150866	225.386292	1136.604190	870.995641	361.288905	1083.162189	872.958899	59.885863	883.880734	938.182354	236.309290	1034.648776	835.152626	435.232610	1027.957916	794.134974	26.399750	1008.571863	467.798769	388.395041	1001.482248	447.182804	96.915863	1005.139709	405.328691	383.547366	970.883965	76.230869	363.992751	980.429828	403.293520	94.251499	974.763095	70.425458	111.211307	1115.982056	42.684726	345.027864	909.047425	33.430874	319.054246	913.666189	31.439532	158.511192	1117.342472	40.881690	129.406035	980.693460	75.272404	280.353248	984.101892	74.921608	188.765615	1034.354687	450.362027	249.596849	1010.432720	447.949260	230.379567	
1080	4.320000	1002.786398	1331.922531	360.945880	1032.551765	1321.302652	71.271613	921.447396	1356.138825	225.400358	1136.611581	871.014357	361.291289	1083.113670	872.960806	59.914496	883.845210	938.182712	236.327738	1034.640908	835.159838	435.242653	1027.926683	794.138074	26.404239	1008.566380	467.804193	388.387322	1001.478076	447.186261	96.920535	1005.135417	405.331522	383.550107	970.880389	76.231211	363.993555	980.425239	403.297096	94.257250	974.757791	70.426181	111.211218	1115.988493	42.689890	345.025778	909.053624	33.434145	319.055676	913.670897	31.439327	158.512443	1117.343783	40.876620	129.398450	980.680883	75.273693	280.355304	984.115720	74.924916	188.764334	1034.338117	450.361997	249.611348	1010.435224	447.952867	230.371401	
1081	4.324000	1002.759218	1331.941366	360.964447	1032.537937	1321.325541	71.290530	921.419680	1356.137276	225.418061	1136.625290	871.037185	361.306548	1083.086014	872.975349	59.927143	883.828700	938.178420	236.335844	1034.626007	835.163414	435.257286	1027.901173	794.145346	26.417939	1008.546114	467.807412	388.402462	1001.460195	447.185993	96.923545	1005.126834	405.331761	383.578748	970.875084	76.236367	363.992810	980.423927	403.299451	94.258040	974.765360	70.428118	111.204535	1115.988374	42.693242	345.024914	909.055233	33.434756	319.057852	913.675487	31.442475	158.499628	1117.350101	40.877078	129.389942	980.672836	75.273126	280.351132	984.137714	74.932419	188.769162	1034.331799	450.360596	249.631494	1010.407567	447.949231	230.373383	
